<svg width="171" height="50" viewBox="0 0 171 50" fill="none" xmlns="http://www.w3.org/2000/svg">
<path d="M69.3848 16.7812V31H66.4648V16.7812H69.3848ZM74.707 22.6895V31H71.8945V20.4336H74.5312L74.707 22.6895ZM74.2969 25.3457H73.5352C73.5352 24.5645 73.6361 23.8613 73.8379 23.2363C74.0397 22.6048 74.3229 22.0677 74.6875 21.625C75.0521 21.1758 75.485 20.834 75.9863 20.5996C76.4941 20.3587 77.0605 20.2383 77.6855 20.2383C78.1803 20.2383 78.6328 20.3099 79.043 20.4531C79.4531 20.5964 79.8047 20.8242 80.0977 21.1367C80.3971 21.4492 80.625 21.8626 80.7812 22.377C80.944 22.8913 81.0254 23.5195 81.0254 24.2617V31H78.1934V24.252C78.1934 23.7832 78.1283 23.4186 77.998 23.1582C77.8678 22.8978 77.6758 22.7155 77.4219 22.6113C77.1745 22.5007 76.8685 22.4453 76.5039 22.4453C76.1263 22.4453 75.7975 22.5202 75.5176 22.6699C75.2441 22.8197 75.0163 23.028 74.834 23.2949C74.6582 23.5553 74.5247 23.8613 74.4336 24.2129C74.3424 24.5645 74.2969 24.9421 74.2969 25.3457ZM88.3398 20.4336V22.4258H82.1875V20.4336H88.3398ZM83.7109 17.8262H86.5234V27.8164C86.5234 28.1224 86.5625 28.3568 86.6406 28.5195C86.7253 28.6823 86.849 28.7962 87.0117 28.8613C87.1745 28.9199 87.3796 28.9492 87.627 28.9492C87.8027 28.9492 87.959 28.9427 88.0957 28.9297C88.2389 28.9102 88.3594 28.8906 88.457 28.8711L88.4668 30.9414C88.2259 31.0195 87.9655 31.0814 87.6855 31.127C87.4056 31.1725 87.0964 31.1953 86.7578 31.1953C86.1393 31.1953 85.599 31.0944 85.1367 30.8926C84.681 30.6842 84.3294 30.3522 84.082 29.8965C83.8346 29.4408 83.7109 28.8418 83.7109 28.0996V17.8262ZM94.8047 31.1953C93.9844 31.1953 93.2487 31.0651 92.5977 30.8047C91.9466 30.5378 91.3932 30.1699 90.9375 29.7012C90.4883 29.2324 90.1432 28.6888 89.9023 28.0703C89.6615 27.4453 89.541 26.7812 89.541 26.0781V25.6875C89.541 24.8867 89.6549 24.1543 89.8828 23.4902C90.1107 22.8262 90.4362 22.25 90.8594 21.7617C91.2891 21.2734 91.8099 20.8991 92.4219 20.6387C93.0339 20.3717 93.724 20.2383 94.4922 20.2383C95.2409 20.2383 95.9049 20.362 96.4844 20.6094C97.0638 20.8568 97.5488 21.2083 97.9395 21.6641C98.3366 22.1198 98.6361 22.6667 98.8379 23.3047C99.0397 23.9362 99.1406 24.6393 99.1406 25.4141V26.5859H90.7422V24.7109H96.377V24.4961C96.377 24.1055 96.3053 23.7572 96.1621 23.4512C96.0254 23.1387 95.8171 22.8913 95.5371 22.709C95.2572 22.5267 94.8991 22.4355 94.4629 22.4355C94.0918 22.4355 93.7728 22.5169 93.5059 22.6797C93.2389 22.8424 93.0208 23.0703 92.8516 23.3633C92.6888 23.6562 92.5651 24.0013 92.4805 24.3984C92.4023 24.7891 92.3633 25.2188 92.3633 25.6875V26.0781C92.3633 26.5013 92.4219 26.8919 92.5391 27.25C92.6628 27.6081 92.8353 27.9173 93.0566 28.1777C93.2845 28.4382 93.5579 28.64 93.877 28.7832C94.2025 28.9264 94.5703 28.998 94.9805 28.998C95.4883 28.998 95.9603 28.9004 96.3965 28.7051C96.8392 28.5033 97.2201 28.2005 97.5391 27.7969L98.9062 29.2812C98.6849 29.6003 98.3822 29.9062 97.998 30.1992C97.6204 30.4922 97.1647 30.7331 96.6309 30.9219C96.097 31.1042 95.4883 31.1953 94.8047 31.1953ZM103.711 16V31H100.889V16H103.711ZM109.004 16V31H106.182V16H109.004ZM114.297 20.4336V31H111.475V20.4336H114.297ZM111.299 17.6797C111.299 17.2695 111.442 16.931 111.729 16.6641C112.015 16.3971 112.399 16.2637 112.881 16.2637C113.356 16.2637 113.737 16.3971 114.023 16.6641C114.316 16.931 114.463 17.2695 114.463 17.6797C114.463 18.0898 114.316 18.4284 114.023 18.6953C113.737 18.9622 113.356 19.0957 112.881 19.0957C112.399 19.0957 112.015 18.9622 111.729 18.6953C111.442 18.4284 111.299 18.0898 111.299 17.6797ZM124.199 27.2793C124.199 27.0254 124.16 26.7975 124.082 26.5957C124.01 26.3874 123.874 26.1986 123.672 26.0293C123.47 25.8535 123.187 25.681 122.822 25.5117C122.458 25.3424 121.986 25.1667 121.406 24.9844C120.762 24.776 120.15 24.5417 119.57 24.2812C118.997 24.0208 118.49 23.7181 118.047 23.373C117.611 23.0215 117.266 22.6146 117.012 22.1523C116.764 21.6901 116.641 21.153 116.641 20.541C116.641 19.9486 116.771 19.4115 117.031 18.9297C117.292 18.4414 117.656 18.0247 118.125 17.6797C118.594 17.3281 119.147 17.0579 119.785 16.8691C120.43 16.6803 121.136 16.5859 121.904 16.5859C122.952 16.5859 123.867 16.7747 124.648 17.1523C125.43 17.5299 126.035 18.0475 126.465 18.7051C126.901 19.3626 127.119 20.1146 127.119 20.9609H124.209C124.209 20.5443 124.121 20.1797 123.945 19.8672C123.776 19.5482 123.516 19.2975 123.164 19.1152C122.819 18.9329 122.383 18.8418 121.855 18.8418C121.348 18.8418 120.924 18.9199 120.586 19.0762C120.247 19.2259 119.993 19.431 119.824 19.6914C119.655 19.9453 119.57 20.2318 119.57 20.5508C119.57 20.7917 119.629 21.0098 119.746 21.2051C119.87 21.4004 120.052 21.5827 120.293 21.752C120.534 21.9212 120.83 22.0807 121.182 22.2305C121.533 22.3802 121.94 22.5267 122.402 22.6699C123.177 22.9043 123.857 23.168 124.443 23.4609C125.036 23.7539 125.531 24.0827 125.928 24.4473C126.325 24.8118 126.624 25.2253 126.826 25.6875C127.028 26.1497 127.129 26.6738 127.129 27.2598C127.129 27.8783 127.008 28.4316 126.768 28.9199C126.527 29.4082 126.178 29.8216 125.723 30.1602C125.267 30.4987 124.723 30.7559 124.092 30.9316C123.46 31.1074 122.754 31.1953 121.973 31.1953C121.27 31.1953 120.576 31.1042 119.893 30.9219C119.209 30.7331 118.587 30.4499 118.027 30.0723C117.474 29.6947 117.031 29.2129 116.699 28.627C116.367 28.041 116.201 27.3477 116.201 26.5469H119.141C119.141 26.9896 119.209 27.3639 119.346 27.6699C119.482 27.9759 119.674 28.2233 119.922 28.4121C120.176 28.6009 120.475 28.7376 120.82 28.8223C121.172 28.9069 121.556 28.9492 121.973 28.9492C122.48 28.9492 122.897 28.8776 123.223 28.7344C123.555 28.5911 123.799 28.3926 123.955 28.1387C124.118 27.8848 124.199 27.5983 124.199 27.2793ZM133.809 31.1953C132.988 31.1953 132.253 31.0651 131.602 30.8047C130.951 30.5378 130.397 30.1699 129.941 29.7012C129.492 29.2324 129.147 28.6888 128.906 28.0703C128.665 27.4453 128.545 26.7812 128.545 26.0781V25.6875C128.545 24.8867 128.659 24.1543 128.887 23.4902C129.115 22.8262 129.44 22.25 129.863 21.7617C130.293 21.2734 130.814 20.8991 131.426 20.6387C132.038 20.3717 132.728 20.2383 133.496 20.2383C134.245 20.2383 134.909 20.362 135.488 20.6094C136.068 20.8568 136.553 21.2083 136.943 21.6641C137.34 22.1198 137.64 22.6667 137.842 23.3047C138.044 23.9362 138.145 24.6393 138.145 25.4141V26.5859H129.746V24.7109H135.381V24.4961C135.381 24.1055 135.309 23.7572 135.166 23.4512C135.029 23.1387 134.821 22.8913 134.541 22.709C134.261 22.5267 133.903 22.4355 133.467 22.4355C133.096 22.4355 132.777 22.5169 132.51 22.6797C132.243 22.8424 132.025 23.0703 131.855 23.3633C131.693 23.6562 131.569 24.0013 131.484 24.3984C131.406 24.7891 131.367 25.2188 131.367 25.6875V26.0781C131.367 26.5013 131.426 26.8919 131.543 27.25C131.667 27.6081 131.839 27.9173 132.061 28.1777C132.288 28.4382 132.562 28.64 132.881 28.7832C133.206 28.9264 133.574 28.998 133.984 28.998C134.492 28.998 134.964 28.9004 135.4 28.7051C135.843 28.5033 136.224 28.2005 136.543 27.7969L137.91 29.2812C137.689 29.6003 137.386 29.9062 137.002 30.1992C136.624 30.4922 136.169 30.7331 135.635 30.9219C135.101 31.1042 134.492 31.1953 133.809 31.1953ZM142.5 22.6895V31H139.688V20.4336H142.324L142.5 22.6895ZM142.09 25.3457H141.328C141.328 24.5645 141.429 23.8613 141.631 23.2363C141.833 22.6048 142.116 22.0677 142.48 21.625C142.845 21.1758 143.278 20.834 143.779 20.5996C144.287 20.3587 144.854 20.2383 145.479 20.2383C145.973 20.2383 146.426 20.3099 146.836 20.4531C147.246 20.5964 147.598 20.8242 147.891 21.1367C148.19 21.4492 148.418 21.8626 148.574 22.377C148.737 22.8913 148.818 23.5195 148.818 24.2617V31H145.986V24.252C145.986 23.7832 145.921 23.4186 145.791 23.1582C145.661 22.8978 145.469 22.7155 145.215 22.6113C144.967 22.5007 144.661 22.4453 144.297 22.4453C143.919 22.4453 143.59 22.5202 143.311 22.6699C143.037 22.8197 142.809 23.028 142.627 23.2949C142.451 23.5553 142.318 23.8613 142.227 24.2129C142.135 24.5645 142.09 24.9421 142.09 25.3457ZM156.67 28.0801C156.67 27.8783 156.611 27.696 156.494 27.5332C156.377 27.3704 156.159 27.2207 155.84 27.084C155.527 26.9408 155.075 26.8105 154.482 26.6934C153.949 26.5762 153.451 26.4297 152.988 26.2539C152.533 26.0716 152.135 25.8535 151.797 25.5996C151.465 25.3457 151.204 25.0462 151.016 24.7012C150.827 24.3496 150.732 23.9492 150.732 23.5C150.732 23.0573 150.827 22.6406 151.016 22.25C151.211 21.8594 151.488 21.5143 151.846 21.2148C152.21 20.9089 152.653 20.6712 153.174 20.502C153.701 20.3262 154.294 20.2383 154.951 20.2383C155.869 20.2383 156.657 20.3848 157.314 20.6777C157.979 20.9707 158.486 21.3743 158.838 21.8887C159.196 22.3965 159.375 22.9759 159.375 23.627H156.562C156.562 23.3535 156.504 23.1094 156.387 22.8945C156.276 22.6732 156.1 22.5007 155.859 22.377C155.625 22.2467 155.319 22.1816 154.941 22.1816C154.629 22.1816 154.359 22.237 154.131 22.3477C153.903 22.4518 153.727 22.5951 153.604 22.7773C153.486 22.9531 153.428 23.1484 153.428 23.3633C153.428 23.526 153.46 23.6725 153.525 23.8027C153.597 23.9264 153.711 24.0404 153.867 24.1445C154.023 24.2487 154.225 24.3464 154.473 24.4375C154.727 24.5221 155.039 24.6003 155.41 24.6719C156.172 24.8281 156.852 25.0332 157.451 25.2871C158.05 25.5345 158.525 25.873 158.877 26.3027C159.229 26.7259 159.404 27.2826 159.404 27.9727C159.404 28.4414 159.3 28.8711 159.092 29.2617C158.883 29.6523 158.584 29.9941 158.193 30.2871C157.803 30.5736 157.334 30.7982 156.787 30.9609C156.247 31.1172 155.638 31.1953 154.961 31.1953C153.978 31.1953 153.145 31.0195 152.461 30.668C151.784 30.3164 151.27 29.8704 150.918 29.3301C150.573 28.7832 150.4 28.2233 150.4 27.6504H153.066C153.079 28.0345 153.177 28.3438 153.359 28.5781C153.548 28.8125 153.786 28.9818 154.072 29.0859C154.365 29.1901 154.681 29.2422 155.02 29.2422C155.384 29.2422 155.687 29.1934 155.928 29.0957C156.169 28.9915 156.351 28.8548 156.475 28.6855C156.605 28.5098 156.67 28.3079 156.67 28.0801ZM166.094 31.1953C165.273 31.1953 164.538 31.0651 163.887 30.8047C163.236 30.5378 162.682 30.1699 162.227 29.7012C161.777 29.2324 161.432 28.6888 161.191 28.0703C160.951 27.4453 160.83 26.7812 160.83 26.0781V25.6875C160.83 24.8867 160.944 24.1543 161.172 23.4902C161.4 22.8262 161.725 22.25 162.148 21.7617C162.578 21.2734 163.099 20.8991 163.711 20.6387C164.323 20.3717 165.013 20.2383 165.781 20.2383C166.53 20.2383 167.194 20.362 167.773 20.6094C168.353 20.8568 168.838 21.2083 169.229 21.6641C169.626 22.1198 169.925 22.6667 170.127 23.3047C170.329 23.9362 170.43 24.6393 170.43 25.4141V26.5859H162.031V24.7109H167.666V24.4961C167.666 24.1055 167.594 23.7572 167.451 23.4512C167.314 23.1387 167.106 22.8913 166.826 22.709C166.546 22.5267 166.188 22.4355 165.752 22.4355C165.381 22.4355 165.062 22.5169 164.795 22.6797C164.528 22.8424 164.31 23.0703 164.141 23.3633C163.978 23.6562 163.854 24.0013 163.77 24.3984C163.691 24.7891 163.652 25.2188 163.652 25.6875V26.0781C163.652 26.5013 163.711 26.8919 163.828 27.25C163.952 27.6081 164.124 27.9173 164.346 28.1777C164.574 28.4382 164.847 28.64 165.166 28.7832C165.492 28.9264 165.859 28.998 166.27 28.998C166.777 28.998 167.249 28.9004 167.686 28.7051C168.128 28.5033 168.509 28.2005 168.828 27.7969L170.195 29.2812C169.974 29.6003 169.671 29.9062 169.287 30.1992C168.91 30.4922 168.454 30.7331 167.92 30.9219C167.386 31.1042 166.777 31.1953 166.094 31.1953Z" fill="#140342"/>
<rect width="50" height="50" rx="22" fill="url(#paint0_linear_249_16458)"/>
<path fill-rule="evenodd" clip-rule="evenodd" d="M12.999 23.5386L14.4985 24.4175V26.1727V27.9304V29.6856V31.4407L15.998 32.3196L17.4975 33.1984L18.997 34.0773L20.4965 34.9561L21.9959 35.835L23.4954 36.7138L24.9949 37.5927L26.4944 36.7138L27.9939 35.835L29.4934 34.9561L30.9929 34.0773L32.4924 33.1984L33.9919 32.3196L35.4914 31.4407V29.6856V27.9304V26.1727V24.4175L36.9909 23.5386V26.7172C36.8668 26.7932 36.7832 26.9376 36.7832 27.0895C36.7832 27.2415 36.8541 27.363 36.9605 27.4416L36.9098 27.5961L36.6084 28.5382H37.2112H37.8141L37.5127 27.5961L37.462 27.4416C37.5709 27.363 37.6393 27.2567 37.6393 27.0895C37.6393 26.9224 37.5177 26.7375 37.3506 26.6767V23.3259L25.3622 16.3001L25.7244 16.0874L37.7254 23.1131L38.5005 22.6598L40 21.7809L38.5005 20.9021L37.001 20.0232L35.5015 19.1444L33.9995 18.2681L32.5 17.3892L31.0005 16.5103L29.501 15.634L28.0015 14.7552L26.502 13.8763L25 13L23.5005 13.8789L22.001 14.7577L20.499 15.634L18.9995 16.5129L17.5 17.3917L16.0005 18.2681L14.501 19.1469L13.0015 20.0258L11.502 20.9046L10 21.7809L11.4995 22.6598L12.999 23.5386ZM23.5005 20.9046L25 20.0258L26.4995 20.9046L27.999 21.7835L26.4995 22.6623L25 23.5412L23.5005 24.4175V26.1752L25 27.0541L26.4995 26.1752L27.999 25.2963L29.4985 24.4175L30.998 23.5386L32.4975 22.6598L33.5284 22.0545L33.997 21.7809L32.7229 21.0363L32.4975 20.9046L30.998 20.0258L29.4985 19.1469L28.0015 18.2681L26.502 17.3892L25.0025 16.5103L23.5005 17.3917L22.001 18.2681L20.5015 19.1469L19.002 20.0258L17.5025 20.9046L16.003 21.7835L17.5025 22.6623V24.4175V26.1727V27.9304V28.832V29.6856L19.002 30.5644L20.5015 31.4433L22.001 32.3221L23.5005 33.201L25 34.0798L26.4995 33.201L27.999 32.3221L29.4985 31.4433L30.998 30.5644L32.4975 29.6856V27.9304V26.1727L30.998 27.0515L29.4985 27.9304L27.999 28.8092L26.4995 29.6881L25 30.5669L23.5005 29.6856L22.001 28.8067L20.5015 27.9278V22.6598L22.001 21.7809L23.5005 20.9046Z" fill="white"/>
<defs>
<linearGradient id="paint0_linear_249_16458" x1="39" y1="45" x2="5" y2="6" gradientUnits="userSpaceOnUse">
<stop stop-color="#6440FB"/>
<stop offset="1" stop-color="#8466FF"/>
</linearGradient>
</defs>
</svg>
