<svg width="60" height="60" viewBox="0 0 60 60" fill="none" xmlns="http://www.w3.org/2000/svg">
<g clip-path="url(#clip0_325_19611)">
<path d="M0.880859 55.5972H59.1196V59.1197H0.880859V55.5972Z" fill="#E4E8ED"/>
<path d="M57.5941 55.597H2.4082V49.7262L23.3868 47.048C26.8958 46.6001 30.0012 49.3341 30.0012 52.8717V55.597V52.8717C30.0012 49.3343 33.1065 46.6001 36.6155 47.048L57.5941 49.7262V55.597Z" fill="#FEEF8F"/>
<path d="M30.0012 52.8717C30.0012 52.6007 29.9808 52.3351 29.9456 52.0746H2.4082V55.5971H57.5941V52.0746H30.0567C30.0215 52.3351 30.0012 52.6006 30.0012 52.8717Z" fill="#FFC277"/>
<path d="M29.9991 26.1254C31.9445 26.1254 33.5216 24.5483 33.5216 22.6029C33.5216 20.6575 31.9445 19.0804 29.9991 19.0804C28.0536 19.0804 26.4766 20.6575 26.4766 22.6029C26.4766 24.5483 28.0536 26.1254 29.9991 26.1254Z" fill="#EBFDC0"/>
<path d="M11.6827 36.1057C13.6281 36.1057 15.2052 34.5286 15.2052 32.5832C15.2052 30.6377 13.6281 29.0607 11.6827 29.0607C9.73724 29.0607 8.16016 30.6377 8.16016 32.5832C8.16016 34.5286 9.73724 36.1057 11.6827 36.1057Z" fill="#EBFDC0"/>
<path d="M22.9541 10.3915C24.8996 10.3915 26.4767 8.81443 26.4767 6.869C26.4767 4.92358 24.8996 3.3465 22.9541 3.3465C21.0087 3.3465 19.4316 4.92358 19.4316 6.869C19.4316 8.81443 21.0087 10.3915 22.9541 10.3915Z" fill="#EBFDC0"/>
<path d="M48.9034 33.405C50.8488 33.405 52.4259 31.8279 52.4259 29.8825C52.4259 27.9371 50.8488 26.36 48.9034 26.36C46.9579 26.36 45.3809 27.9371 45.3809 29.8825C45.3809 31.8279 46.9579 33.405 48.9034 33.405Z" fill="#EBFDC0"/>
<path d="M30.001 22.6029C28.6975 22.6029 27.56 21.8942 26.9509 20.8417C26.651 21.36 26.4785 21.9611 26.4785 22.6029C26.4785 24.5484 28.0555 26.1254 30.001 26.1254C31.9465 26.1254 33.5235 24.5484 33.5235 22.6029C33.5235 21.9611 33.351 21.36 33.0511 20.8417C32.442 21.8942 31.3046 22.6029 30.001 22.6029Z" fill="#C7EFBC"/>
<path d="M11.6827 32.5832C10.3791 32.5832 9.24168 31.8745 8.63252 30.822C8.33264 31.3402 8.16016 31.9414 8.16016 32.5832C8.16016 34.5287 9.73718 36.1057 11.6827 36.1057C13.6281 36.1057 15.2052 34.5287 15.2052 32.5832C15.2052 31.9414 15.0327 31.3402 14.7328 30.822C14.1236 31.8745 12.9862 32.5832 11.6827 32.5832Z" fill="#C7EFBC"/>
<path d="M22.9541 6.86904C21.6506 6.86904 20.5132 6.16031 19.904 5.10779C19.6041 5.62607 19.4316 6.22724 19.4316 6.86904C19.4316 8.81452 21.0087 10.3915 22.9541 10.3915C24.8996 10.3915 26.4767 8.81452 26.4767 6.86904C26.4767 6.22724 26.3042 5.62607 26.0043 5.10779C25.3951 6.16031 24.2577 6.86904 22.9541 6.86904Z" fill="#C7EFBC"/>
<path d="M48.9053 29.8825C47.6018 29.8825 46.4643 29.1738 45.8552 28.1213C45.5553 28.6396 45.3828 29.2407 45.3828 29.8825C45.3828 31.828 46.9598 33.405 48.9053 33.405C50.8508 33.405 52.4278 31.828 52.4278 29.8825C52.4278 29.2407 52.2553 28.6396 51.9554 28.1213C51.3463 29.1738 50.2089 29.8825 48.9053 29.8825Z" fill="#C7EFBC"/>
<path d="M25.0684 51.1939H26.8296V52.9552H25.0684V51.1939Z" fill="white"/>
<path d="M21.5449 51.1939H23.3062V52.9552H21.5449V51.1939Z" fill="white"/>
<path d="M58.4743 54.7164V48.9508L41.2227 46.7487L40.9996 48.4957L56.7131 50.5017V54.7164H40.0986V56.4777H58.2395V58.239H8.63086V60.0002H60.0007V54.7164H58.4743Z" fill="black"/>
<path d="M1.76125 56.4773H38.3366V54.7161H30.8806V52.8714C30.8806 50.1192 33.1142 47.8801 35.8599 47.8801C36.0733 47.8801 36.2894 47.8939 36.5028 47.9213L39.2519 48.2723L39.475 46.5252L36.7263 46.1743C36.4395 46.1376 36.1479 46.1188 35.8599 46.1188C33.353 46.1188 31.1611 47.4972 30 49.5368C28.8387 47.4972 26.6469 46.119 24.14 46.119C23.8523 46.119 23.5609 46.1375 23.2741 46.1743L1.52642 48.9505V54.7161H0V59.9998H6.86888V58.2386H1.76125V56.4773ZM3.28767 50.5013L23.4973 47.9213C23.7103 47.8941 23.9266 47.8802 24.14 47.8802C26.8856 47.8802 29.1194 50.1192 29.1194 52.8714V54.7161H3.28767V50.5013Z" fill="black"/>
<path d="M30.0008 18.1997C27.5728 18.1997 25.5977 20.1749 25.5977 22.6028C25.5977 25.0308 27.5728 27.006 30.0008 27.006C32.4287 27.006 34.4039 25.0308 34.4039 22.6028C34.4039 20.1749 32.4287 18.1997 30.0008 18.1997ZM30.0008 25.2447C28.5441 25.2447 27.3589 24.0595 27.3589 22.6028C27.3589 21.1462 28.5441 19.961 30.0008 19.961C31.4575 19.961 32.6427 21.1462 32.6427 22.6028C32.6427 24.0595 31.4575 25.2447 30.0008 25.2447Z" fill="black"/>
<path d="M11.6824 36.9863C12.8751 36.9863 13.9578 36.5089 14.7516 35.736C15.7991 36.0324 16.9878 36.1787 18.2895 36.1787C19.3396 36.1787 20.4622 36.0845 21.6395 35.9003C23.4885 41.5738 26.5155 45.2055 29.9995 45.2055C33.4854 45.2055 36.5139 41.5697 38.3626 35.8907C38.4664 35.907 38.5702 35.9232 38.6732 35.9381C39.7532 36.0943 40.7724 36.1714 41.7233 36.1714C44.5199 36.1714 46.7188 35.5013 48.109 34.2124C48.367 34.2597 48.6322 34.2857 48.9037 34.2857C51.3316 34.2857 53.3068 32.3105 53.3068 29.8826C53.3068 27.4546 51.3315 25.4795 48.9036 25.4795C48.7187 25.4795 48.5369 25.4923 48.3579 25.5144C47.7889 24.4624 47.0618 23.3901 46.1955 22.3169C46.7919 21.6546 47.3413 20.9876 47.8377 20.3196C50.7266 16.4319 51.5235 12.9163 50.0818 10.4206C48.6409 7.92458 45.1982 6.85785 40.387 7.41511C39.5608 7.51092 38.709 7.65311 37.8377 7.83828C35.9674 3.01362 33.173 0 29.9995 0C28.1653 0 26.4052 1.00157 24.8728 2.9063C24.2926 2.62427 23.6418 2.46575 22.9544 2.46575C20.5265 2.46575 18.5513 4.44094 18.5513 6.86888C18.5513 7.02094 18.5591 7.17112 18.5742 7.31918C14.3052 7.0207 11.2553 8.10329 9.91718 10.4206C8.47554 12.9164 9.27245 16.4319 12.1613 20.3197C12.6558 20.9852 13.2031 21.6499 13.7971 22.3099C12.1249 24.3821 10.9798 26.4413 10.4946 28.3442C8.64204 28.864 7.2793 30.5669 7.2793 32.5832C7.2793 35.0111 9.25448 36.9863 11.6824 36.9863V36.9863ZM21.9236 29.1251C22.7107 29.6396 23.5216 30.1389 24.3541 30.6194C25.4793 31.2692 26.6178 31.8692 27.758 32.4167C26.0719 33.0464 24.4288 33.5366 22.8767 33.8736C22.4736 32.3867 22.1542 30.7934 21.9236 29.1251V29.1251ZM35.8332 37.613C34.2306 41.3188 32.1043 43.4442 29.9995 43.4442C27.8946 43.4442 25.7683 41.3188 24.1657 37.613C23.8857 36.9654 23.6264 36.2823 23.3879 35.5686C25.4861 35.1059 27.7202 34.3853 30.0054 33.4262C32.2635 34.3705 34.497 35.0933 36.6138 35.5599C36.3745 36.2766 36.1143 36.9628 35.8332 37.613V37.613ZM37.1236 33.8684C35.5546 33.5306 33.9134 33.0427 32.2415 32.419C33.3739 31.8739 34.5117 31.2736 35.6449 30.6194C36.4772 30.1388 37.2882 29.6396 38.0753 29.1251C37.8449 30.7915 37.526 32.383 37.1236 33.8684ZM48.9036 27.2407C50.3602 27.2407 51.5454 28.4259 51.5454 29.8826C51.5454 31.3393 50.3602 32.5245 48.9036 32.5245C47.4469 32.5245 46.2617 31.3393 46.2617 29.8826C46.2617 28.4259 47.4469 27.2407 48.9036 27.2407V27.2407ZM46.6671 26.0919C45.3715 26.8592 44.5004 28.2707 44.5004 29.8826C44.5004 31.3227 45.1954 32.6035 46.2677 33.4074C44.6955 34.3666 42.1087 34.6556 38.9254 34.1951C38.9055 34.1923 38.8853 34.1888 38.8654 34.1859C39.3854 32.2329 39.776 30.0844 40.0121 27.792C41.85 26.4602 43.5209 25.0487 44.9737 23.6004C45.6353 24.4377 46.2042 25.2719 46.6671 26.0919V26.0919ZM40.1303 18.7506C41.5169 19.8931 42.7607 21.0709 43.8315 22.2539C42.7454 23.3465 41.5252 24.4199 40.1957 25.4537C40.2469 24.5215 40.2734 23.5703 40.2734 22.6027C40.2734 21.2863 40.224 20 40.1303 18.7506ZM40.5899 9.16485C44.6001 8.69965 47.5041 9.47859 48.5567 11.3015C49.6095 13.1241 48.8322 16.0283 46.424 19.2692C46.0017 19.8375 45.5379 20.4055 45.0371 20.9708C43.5828 19.38 41.8428 17.8066 39.8858 16.3158C39.5714 13.8402 39.0741 11.5494 38.4268 9.51405C39.1654 9.36352 39.8879 9.24622 40.5899 9.16485V9.16485ZM38.5122 22.6027C38.5122 24.0386 38.4512 25.4519 38.3326 26.8268C37.2012 27.6169 36.0078 28.3762 34.7642 29.0942C33.1798 30.0092 31.5785 30.8153 29.9965 31.508C28.4081 30.8121 26.8092 30.0034 25.2347 29.0942C23.9911 28.3764 22.7977 27.617 21.6663 26.8268C21.5477 25.4519 21.4867 24.0386 21.4867 22.6027C21.4867 20.784 21.5862 18.9959 21.778 17.2701C23.1684 16.2469 24.6679 15.2643 26.2515 14.3501C27.495 13.6321 28.7492 12.9782 29.9991 12.3935C31.251 12.9786 32.5025 13.6313 33.7474 14.3501C35.3311 15.2645 36.8315 16.2449 38.2229 17.267C38.4134 18.9875 38.5122 20.7767 38.5122 22.6027V22.6027ZM37.8919 14.8781C36.849 14.1653 35.759 13.4777 34.6281 12.8247C33.7944 12.3433 32.9573 11.8912 32.1187 11.4668C33.6774 10.8329 35.2157 10.3132 36.7037 9.9189C37.1976 11.4488 37.596 13.1151 37.8919 14.8781V14.8781ZM29.9995 1.76125C32.1043 1.76125 34.2306 3.88673 35.8332 7.59253C35.9271 7.80986 36.0184 8.03178 36.1077 8.25675C34.1282 8.79088 32.0715 9.53202 30.0005 10.4575C28.9064 9.96904 27.8124 9.53119 26.7221 9.14513C27.1252 8.48055 27.3576 7.70137 27.3576 6.86888C27.3576 5.76305 26.9469 4.75198 26.2712 3.97785C27.1784 2.86027 28.4614 1.76125 29.9995 1.76125V1.76125ZM27.8781 11.4681C27.0397 11.8922 26.2025 12.3445 25.3709 12.8247C24.238 13.4787 23.1492 14.1636 22.1113 14.8715C22.3218 13.6218 22.584 12.4165 22.8966 11.2705C22.9159 11.2708 22.9351 11.272 22.9544 11.272C23.8478 11.272 24.6792 11.004 25.3742 10.545C26.2061 10.8207 27.0414 11.1289 27.8781 11.4681V11.4681ZM22.9544 4.22701C24.4111 4.22701 25.5963 5.41221 25.5963 6.86888C25.5963 8.32556 24.4111 9.51076 22.9544 9.51076C21.4978 9.51076 20.3126 8.32556 20.3126 6.86888C20.3126 5.41221 21.4978 4.22701 22.9544 4.22701ZM13.575 19.2692C11.1667 16.0282 10.3894 13.1241 11.4423 11.3015C12.478 9.50783 15.2875 8.72971 19.1842 9.14078C19.65 9.91092 20.3454 10.5268 21.1745 10.8948C20.7162 12.5924 20.3634 14.4097 20.1205 16.3047C18.1474 17.804 16.4059 19.3786 14.9559 20.9641C14.4573 20.4011 13.9955 19.8352 13.575 19.2692V19.2692ZM19.8032 25.4537C18.4742 24.4202 17.2543 23.3472 16.1685 22.255C17.2368 21.0789 18.4825 19.9006 19.8713 18.7551C19.7756 20.0168 19.7255 21.3026 19.7255 22.6027C19.7255 23.5703 19.7521 24.5215 19.8032 25.4537V25.4537ZM15.0243 23.5995C16.4773 25.0479 18.1486 26.4599 19.9869 27.7919C20.2232 30.0865 20.6143 32.2371 21.1352 34.1918C19.1065 34.4925 17.2833 34.4973 15.7853 34.1783C15.9785 33.6832 16.0857 33.1456 16.0857 32.5832C16.0857 30.3855 14.4673 28.5589 12.3597 28.2322C12.8341 26.7775 13.7508 25.2033 15.0243 23.5995V23.5995ZM11.6824 29.9413C13.1391 29.9413 14.3243 31.1265 14.3243 32.5832C14.3243 34.0398 13.1391 35.2251 11.6824 35.2251C10.2258 35.2251 9.04055 34.0398 9.04055 32.5832C9.04055 31.1265 10.2258 29.9413 11.6824 29.9413Z" fill="black"/>
<path d="M53.3066 2.34839H55.0679V4.10964H53.3066V2.34839Z" fill="black"/>
<path d="M53.3066 8.21899H55.0679V9.98024H53.3066V8.21899Z" fill="black"/>
<path d="M56.2422 5.28394H58.0034V7.04519H56.2422V5.28394Z" fill="black"/>
<path d="M50.3711 5.28394H52.1323V7.04519H50.3711V5.28394Z" fill="black"/>
<path d="M5.75391 38.1603H7.51516V39.9215H5.75391V38.1603Z" fill="black"/>
<path d="M5.75391 44.0313H7.51516V45.7926H5.75391V44.0313Z" fill="black"/>
<path d="M8.68945 41.0958H10.4507V42.857H8.68945V41.0958Z" fill="black"/>
<path d="M2.81836 41.0958H4.57961V42.857H2.81836V41.0958Z" fill="black"/>
</g>
<defs>
<clipPath id="clip0_325_19611">
<rect width="60" height="60" fill="white"/>
</clipPath>
</defs>
</svg>
