<svg width="60" height="60" viewBox="0 0 60 60" fill="none" xmlns="http://www.w3.org/2000/svg">
<g clip-path="url(#clip0_325_19572)">
<path d="M19.6892 37.9935C20.526 32.8319 17.02 27.9693 11.8584 27.1326C6.69679 26.2958 1.83419 29.8018 0.997459 34.9634C0.160727 40.125 3.66672 44.9876 8.82831 45.8244C13.9899 46.6611 18.8525 43.1551 19.6892 37.9935Z" fill="#E1D3CE"/>
<path d="M15.831 43.9742C14.9892 41.7657 12.853 40.1961 10.3488 40.1961C7.83359 40.1961 5.68953 41.7797 4.85539 44.0035C4.83652 44.0538 4.81836 44.1045 4.80078 44.1554C6.36019 45.2851 8.27597 45.9529 10.3488 45.9529C12.4216 45.9529 14.3374 45.2851 15.8968 44.1554C15.8758 44.0946 15.854 44.0342 15.831 43.9742Z" fill="#FFE177"/>
<path d="M10.3482 37.2269C11.946 37.2269 13.2413 35.669 13.2413 33.7472C13.2413 31.8255 11.946 30.2676 10.3482 30.2676C8.75037 30.2676 7.45508 31.8255 7.45508 33.7472C7.45508 35.669 8.75037 37.2269 10.3482 37.2269Z" fill="#FAF7F7"/>
<path d="M59.0062 37.9384C59.822 32.7716 56.2948 27.9217 51.128 27.1059C45.9612 26.2901 41.1113 29.8173 40.2955 34.9841C39.4797 40.1509 43.0069 45.0008 48.1737 45.8166C53.3405 46.6325 58.1904 43.1053 59.0062 37.9384Z" fill="#E1D3CE"/>
<path d="M41.4238 31.8016C40.6359 33.183 40.1836 34.7804 40.1836 36.4844C40.1836 40.6818 42.9156 44.2389 46.6975 45.4806C46.8252 44.7087 46.8927 43.9165 46.8927 43.1085C46.8927 38.5262 44.7554 34.4435 41.4238 31.8016V31.8016Z" fill="#CDBFBA"/>
<path d="M55.1338 43.9742C54.2919 41.7657 52.1557 40.1961 49.6515 40.1961C47.1363 40.1961 44.9923 41.7797 44.1581 44.0035C44.1393 44.0538 44.1211 44.1045 44.1035 44.1554C45.6628 45.2851 47.5787 45.9529 49.6515 45.9529C51.7243 45.9529 53.6401 45.2851 55.1995 44.1554C55.1785 44.0946 55.1566 44.0342 55.1338 43.9742V43.9742Z" fill="#FD8087"/>
<path d="M44.1581 44.0039C44.1393 44.0542 44.1211 44.1048 44.1035 44.1558C44.8863 44.7229 45.759 45.1735 46.6963 45.4817C46.8241 44.7095 46.8918 43.9169 46.8918 43.1084C46.8918 42.383 46.8376 41.6704 46.7343 40.9737C45.5593 41.6493 44.64 42.7193 44.1581 44.0039Z" fill="#FE646F"/>
<path d="M56.6409 2.46942H3.61137C2.71711 2.46942 1.99219 3.19434 1.99219 4.0886V16.857C1.99219 17.7513 2.71711 18.4762 3.61137 18.4762H24.9643C25.4443 18.4762 25.8878 18.7322 26.1278 19.1479L29.2869 24.6196C29.6599 25.2657 30.5925 25.2657 30.9655 24.6196L34.1246 19.1479C34.3646 18.7322 34.8082 18.4762 35.2881 18.4762H56.6411C57.5353 18.4762 58.2601 17.7513 58.2601 16.8571V4.0886C58.26 3.19434 57.5351 2.46942 56.6409 2.46942V2.46942Z" fill="#FFE177"/>
<path d="M56.6425 2.46942H54.7461V14.5131C54.7461 15.4074 54.0212 16.1322 53.127 16.1322H31.7739C31.2939 16.1322 30.8505 16.3883 30.6105 16.8039L27.6934 21.8567L29.2885 24.6195C29.6615 25.2656 30.5941 25.2656 30.9671 24.6195L34.1262 19.1478C34.3662 18.7321 34.8098 18.4761 35.2897 18.4761H56.6427C57.5369 18.4761 58.2617 17.7511 58.2617 16.857V4.0886C58.2616 3.19434 57.5367 2.46942 56.6425 2.46942V2.46942Z" fill="#FFD15B"/>
<path d="M49.6529 37.2269C51.2507 37.2269 52.546 35.669 52.546 33.7472C52.546 31.8255 51.2507 30.2676 49.6529 30.2676C48.0551 30.2676 46.7598 31.8255 46.7598 33.7472C46.7598 35.669 48.0551 37.2269 49.6529 37.2269Z" fill="#FAF7F7"/>
<path d="M40.3155 53.3036C45.9471 47.672 45.9471 38.5414 40.3155 32.9097C34.6839 27.2781 25.5532 27.2781 19.9216 32.9097C14.2899 38.5414 14.2899 47.672 19.9216 53.3036C25.5532 58.9353 34.6839 58.9353 40.3155 53.3036Z" fill="#F3EAE6"/>
<path d="M30.127 28.6854C29.5319 28.6854 28.9454 28.7222 28.3691 28.7922C35.5055 29.6594 41.0342 35.7379 41.0342 43.1083C41.0342 50.4787 35.5055 56.5571 28.3691 57.4244C28.9454 57.4944 29.5319 57.5313 30.127 57.5313C38.0925 57.5313 44.5498 51.0739 44.5498 43.1085C44.5498 35.1427 38.0925 28.6854 30.127 28.6854Z" fill="#E1D3CE"/>
<path d="M38.477 54.5172C37.1946 51.1533 33.9407 48.7625 30.1264 48.7625C26.2952 48.7625 23.0295 51.1745 21.759 54.5619C21.7303 54.6385 21.7025 54.7156 21.6758 54.7933C24.0509 56.514 26.969 57.5313 30.1263 57.5313C33.2836 57.5313 36.2016 56.514 38.5768 54.7933C38.545 54.7006 38.5118 54.6085 38.477 54.5172V54.5172Z" fill="#62DBFB"/>
<path d="M28.3691 57.4244C30.0985 57.6325 31.8708 57.534 33.562 57.1186C35.3964 56.6693 37.093 55.8686 38.5775 54.7932C38.3102 54.0138 37.9304 53.2728 37.4655 52.6046C35.1852 55.2085 31.9838 56.9852 28.3691 57.4244V57.4244Z" fill="#01D0FB"/>
<path d="M30.1275 44.239C32.5614 44.239 34.5344 41.8661 34.5344 38.939C34.5344 36.0118 32.5614 33.6389 30.1275 33.6389C27.6937 33.6389 25.7207 36.0118 25.7207 38.939C25.7207 41.8661 27.6937 44.239 30.1275 44.239Z" fill="#FAF7F7"/>
<path d="M12.0404 6.29481L12.9193 8.07571C12.9934 8.22606 13.1368 8.33012 13.3027 8.35426L15.268 8.63985C15.6857 8.70055 15.8525 9.21383 15.5502 9.50844L14.1282 10.8947C14.0082 11.0116 13.9533 11.1802 13.9817 11.3454L14.3174 13.3027C14.3888 13.7188 13.9521 14.036 13.5786 13.8396L11.8207 12.9154C11.6724 12.8374 11.4952 12.8374 11.3468 12.9154L9.58902 13.8396C9.21543 14.036 8.77879 13.7188 8.85016 13.3027L9.1859 11.3454C9.21426 11.1801 9.15942 11.0116 9.03942 10.8947L7.61723 9.50844C7.315 9.21383 7.48176 8.70055 7.89942 8.63985L9.86477 8.35426C10.0306 8.33012 10.174 8.22594 10.2482 8.07571L11.1271 6.29481C11.3139 5.9163 11.8536 5.9163 12.0404 6.29481V6.29481Z" fill="#FAF7F7"/>
<path d="M24.4035 6.29481L25.2824 8.07571C25.3566 8.22606 25.5 8.33012 25.6659 8.35426L27.6312 8.63985C28.0489 8.70055 28.2156 9.21383 27.9134 9.50844L26.4913 10.8947C26.3713 11.0116 26.3166 11.1802 26.3448 11.3454L26.6806 13.3027C26.7519 13.7188 26.3153 14.036 25.9417 13.8396L24.1839 12.9154C24.0355 12.8374 23.8584 12.8374 23.71 12.9154L21.9522 13.8396C21.5786 14.036 21.142 13.7188 21.2133 13.3027L21.5491 11.3454C21.5774 11.1801 21.5226 11.0116 21.4026 10.8947L19.9805 9.50844C19.6783 9.21383 19.845 8.70055 20.2627 8.63985L22.228 8.35426C22.3939 8.33012 22.5373 8.22594 22.6115 8.07571L23.4904 6.29481C23.6771 5.9163 24.2167 5.9163 24.4035 6.29481V6.29481Z" fill="#FAF7F7"/>
<path d="M36.7648 6.29481L37.6437 8.07571C37.7179 8.22606 37.8612 8.33012 38.0272 8.35426L39.9925 8.63985C40.4102 8.70055 40.5769 9.21383 40.2747 9.50844L38.8527 10.8947C38.7327 11.0116 38.6778 11.1802 38.7062 11.3454L39.0419 13.3027C39.1133 13.7188 38.6766 14.036 38.303 13.8396L36.5452 12.9154C36.3969 12.8374 36.2197 12.8374 36.0713 12.9154L34.3135 13.8396C33.9399 14.036 33.5033 13.7188 33.5747 13.3027L33.9104 11.3454C33.9388 11.1801 33.884 11.0116 33.7639 10.8947L32.3418 9.50844C32.0396 9.21383 32.2064 8.70055 32.624 8.63985L34.5894 8.35426C34.7552 8.33012 34.8986 8.22594 34.9728 8.07571L35.8517 6.29481C36.0384 5.9163 36.578 5.9163 36.7648 6.29481V6.29481Z" fill="#FAF7F7"/>
<path d="M49.1281 6.29481L50.007 8.07571C50.0812 8.22606 50.2247 8.33012 50.3905 8.35426L52.3558 8.63985C52.7735 8.70055 52.9402 9.21383 52.638 9.50844L51.2159 10.8947C51.0959 11.0116 51.0412 11.1802 51.0695 11.3454L51.4052 13.3027C51.4766 13.7188 51.0399 14.036 50.6663 13.8396L48.9085 12.9154C48.7602 12.8374 48.583 12.8374 48.4346 12.9154L46.6768 13.8396C46.3032 14.036 45.8666 13.7188 45.9379 13.3027L46.2737 11.3454C46.302 11.1801 46.2473 11.0116 46.1272 10.8947L44.7051 9.50844C44.4029 9.21383 44.5696 8.70055 44.9873 8.63985L46.9527 8.35426C47.1185 8.33012 47.2619 8.22594 47.3361 8.07571L48.215 6.29481C48.4017 5.9163 48.9413 5.9163 49.1281 6.29481V6.29481Z" fill="#FAF7F7"/>
<path d="M10.3482 38.1058C12.4282 38.1058 14.1202 36.1505 14.1202 33.7472C14.1202 31.3439 12.4282 29.3888 10.3482 29.3888C8.26824 29.3888 6.57617 31.3441 6.57617 33.7472C6.57617 36.1506 8.26836 38.1058 10.3482 38.1058ZM10.3482 31.1466C11.4589 31.1466 12.3624 32.3133 12.3624 33.7472C12.3624 35.1812 11.4588 36.348 10.3482 36.348C9.2375 36.348 8.33398 35.1812 8.33398 33.7472C8.33398 32.3132 9.23762 31.1466 10.3482 31.1466Z" fill="black"/>
<path d="M49.6529 29.3888C47.5729 29.3888 45.8809 31.3441 45.8809 33.7472C45.8809 36.1505 47.5729 38.1058 49.6529 38.1058C51.7329 38.1058 53.425 36.1505 53.425 33.7472C53.425 31.3439 51.7329 29.3888 49.6529 29.3888ZM49.6529 36.348C48.5423 36.348 47.6387 35.1812 47.6387 33.7472C47.6387 32.3132 48.5423 31.1466 49.6529 31.1466C50.7636 31.1466 51.6672 32.3133 51.6672 33.7472C51.6672 35.1814 50.7636 36.348 49.6529 36.348Z" fill="black"/>
<path d="M49.7333 26.1347C49.7061 26.1345 49.6793 26.1343 49.652 26.1343C45.7309 26.1343 42.1696 28.3603 40.4229 31.7992C37.7025 29.3201 34.0876 27.8065 30.1259 27.8065C26.0788 27.8065 22.3942 29.3865 19.6548 31.9613C17.9386 28.4412 14.3156 26.1364 10.3479 26.1364C4.64203 26.1364 0 30.7785 0 36.4843C0 42.1902 4.64203 46.8322 10.3478 46.8322C11.9919 46.8322 13.5969 46.4443 15.0455 45.7053C16.2824 52.9102 22.5735 58.4102 30.1257 58.4102C37.6385 58.4102 43.9041 52.9679 45.1871 45.8187C46.5497 46.4702 48.047 46.8178 49.571 46.8299C49.5989 46.8301 49.6267 46.8302 49.6545 46.8302C52.3874 46.8302 54.9616 45.7761 56.9115 43.8566C58.8813 41.9175 59.9781 39.3275 59.9998 36.5636C60.0444 30.8578 55.4389 26.1795 49.7333 26.1347ZM1.75781 36.4843C1.75781 31.7479 5.61129 27.8944 10.3478 27.8944C13.8701 27.8944 17.0652 30.0818 18.3471 33.3514C16.5452 35.523 15.3311 38.1988 14.9513 41.1327C13.7217 39.9832 12.0871 39.3175 10.3478 39.3175C7.90887 39.3175 5.65992 40.6615 4.47609 42.7459C2.80488 41.1776 1.75781 38.9515 1.75781 36.4843ZM5.8916 43.8255C6.73031 42.1623 8.46199 41.0753 10.3479 41.0753C12.1929 41.0753 13.8795 42.088 14.7497 43.7182C14.7693 43.7548 14.7918 43.7887 14.8154 43.8213C13.4722 44.6409 11.9323 45.0744 10.3479 45.0744C8.71734 45.0743 7.19156 44.6176 5.8916 43.8255ZM22.749 54.4616C24.0244 51.5628 26.9389 49.6412 30.1257 49.6412C33.3168 49.6412 36.2268 51.5616 37.5022 54.4617C35.3784 55.8463 32.8446 56.6523 30.1257 56.6523C27.4068 56.6523 24.8729 55.8463 22.749 54.4616ZM38.9388 53.3842C37.3059 50.0598 33.8752 47.8835 30.1259 47.8835C26.3814 47.8835 22.9459 50.0614 21.3128 53.3842C18.4185 50.8983 16.5819 47.214 16.5819 43.1084C16.5819 35.6401 22.6577 29.5644 30.1259 29.5644C37.5941 29.5644 43.6698 35.6402 43.6698 43.1084C43.6697 47.2139 41.8331 50.8983 38.9388 53.3842ZM49.5848 45.072C48.1136 45.0604 46.6732 44.6723 45.4042 43.9492C45.4146 43.7572 45.4209 43.5643 45.4242 43.3706C45.4242 43.3706 46.9774 41.0753 49.6521 41.0753C51.5411 41.0753 53.2709 42.1622 54.1092 43.827C52.759 44.6502 51.2041 45.0861 49.5848 45.072ZM55.6784 42.6038C55.6283 42.6531 55.5762 42.6995 55.5252 42.7474C54.342 40.6612 52.095 39.3175 49.6521 39.3175C48.0286 39.3175 46.4808 39.9052 45.2728 40.937C44.8521 37.9887 43.5885 35.3085 41.7336 33.1496C43.0673 29.9817 46.1902 27.8923 49.652 27.8923C49.6744 27.8923 49.6971 27.8923 49.7195 27.8925C54.456 27.9297 58.2791 31.8131 58.242 36.5496C58.2239 38.844 57.3135 40.9941 55.6784 42.6038Z" fill="black"/>
<path d="M30.1256 32.7606C27.211 32.7606 24.8398 35.5324 24.8398 38.9395C24.8398 42.3466 27.211 45.1185 30.1256 45.1185C33.0401 45.1185 35.4113 42.3466 35.4113 38.9395C35.4113 35.5325 33.0401 32.7606 30.1256 32.7606ZM30.1256 43.3606C28.1803 43.3606 26.5977 41.3774 26.5977 38.9395C26.5977 36.5017 28.1803 34.5184 30.1256 34.5184C32.0709 34.5184 33.6535 36.5017 33.6535 38.9395C33.6535 41.3774 32.0709 43.3606 30.1256 43.3606Z" fill="black"/>
<path d="M8.28516 11.3883L7.98235 13.1541C7.89235 13.6787 8.10399 14.1989 8.53453 14.5118C8.77793 14.6885 9.06258 14.7784 9.34911 14.7784C9.56977 14.7784 9.79149 14.7251 9.99633 14.6174L11.5821 13.7837L13.1679 14.6174C13.6389 14.8651 14.1991 14.8246 14.6298 14.5118C15.0605 14.1991 15.2721 13.6787 15.1821 13.1541L14.8793 11.3883L16.1623 10.1378C16.5435 9.76632 16.678 9.22104 16.5135 8.71479C16.3491 8.20866 15.9197 7.84667 15.3929 7.77003L13.62 7.51233L12.8271 5.90581C12.5916 5.4285 12.1145 5.13202 11.5822 5.13202C11.05 5.13202 10.573 5.42862 10.3375 5.90581L9.54457 7.51233L7.77153 7.77003C7.24488 7.84655 6.81551 8.20854 6.65098 8.71479C6.48656 9.22093 6.62109 9.7662 7.00231 10.1378L8.28516 11.3883ZM9.98953 9.22409C10.4419 9.15846 10.8327 8.87452 11.0348 8.46472L11.5822 7.35554L12.1296 8.4646C12.3319 8.8744 12.7226 9.15835 13.1748 9.22397L14.3988 9.40186L13.5129 10.2653C13.1858 10.5843 13.0366 11.0435 13.1139 11.4939L13.3229 12.7129L12.2282 12.1374C11.8236 11.9247 11.3407 11.9247 10.9363 12.1373L9.84141 12.7129L10.0505 11.4941C10.1278 11.0438 9.97875 10.5844 9.65133 10.2652L8.76563 9.40186L9.98953 9.22409Z" fill="black"/>
<path d="M28.8766 8.71479C28.7122 8.20866 28.2828 7.84666 27.756 7.77002L25.9831 7.51233L25.1902 5.9058C24.9547 5.4285 24.4777 5.1319 23.9454 5.1319C23.4132 5.1319 22.9362 5.42838 22.7007 5.90569L21.9078 7.51221L20.1349 7.76991C19.6081 7.84643 19.1787 8.20842 19.0143 8.71467C18.8498 9.22092 18.9844 9.7662 19.3655 10.1377L20.6484 11.3882L20.3456 13.154C20.2556 13.6786 20.4672 14.1988 20.8978 14.5117C21.1411 14.6884 21.4258 14.7783 21.7123 14.7783C21.933 14.7783 22.1547 14.725 22.3595 14.6173L23.9453 13.7836L25.5311 14.6173C26.0022 14.865 26.5624 14.8245 26.993 14.5117C27.4236 14.1988 27.6352 13.6786 27.5452 13.154L27.2423 11.3882L28.5253 10.1377C28.9066 9.76631 29.0411 9.22104 28.8766 8.71479ZM25.8761 10.2654C25.549 10.5844 25.3999 11.0437 25.4771 11.494L25.6861 12.713L24.5914 12.1375C24.3891 12.0311 24.1672 11.978 23.9453 11.978C23.7235 11.978 23.5015 12.0312 23.2994 12.1375L22.2045 12.7131L22.4136 11.494C22.4908 11.0437 22.3416 10.5844 22.0143 10.2653L21.1286 9.40198L22.3525 9.22408C22.8049 9.15846 23.1956 8.87452 23.3978 8.46471L23.9452 7.35553L24.4926 8.46483C24.695 8.87463 25.0857 9.15846 25.5378 9.22408L26.7618 9.40198L25.8761 10.2654Z" fill="black"/>
<path d="M41.238 8.71485C41.0736 8.2086 40.6442 7.84661 40.1174 7.77009L38.3445 7.51239L37.5516 5.90587C37.3161 5.42868 36.839 5.13208 36.3068 5.13208C35.7747 5.13208 35.2977 5.42856 35.0621 5.90587L34.2692 7.51239L32.4961 7.77009C31.9695 7.84661 31.5401 8.2086 31.3756 8.71485C31.2112 9.22099 31.3457 9.76626 31.7269 10.1379L33.0099 11.3884L32.707 13.1542C32.617 13.6788 32.8286 14.199 33.2591 14.5119C33.5025 14.6886 33.7871 14.7785 34.0737 14.7785C34.2943 14.7784 34.5161 14.7252 34.7209 14.6175L36.3067 13.7838L37.8925 14.6175C38.3636 14.8652 38.9238 14.8247 39.3544 14.5119C39.785 14.1991 39.9966 13.6788 39.9066 13.1542L39.6037 11.3884L40.8866 10.1379C41.2679 9.76626 41.4025 9.22099 41.238 8.71485ZM38.2377 10.2652C37.9104 10.5842 37.7613 11.0435 37.8385 11.494L38.0475 12.7129L36.9528 12.1373C36.7505 12.031 36.5287 11.9778 36.3068 11.9778C36.085 11.9778 35.8631 12.031 35.6609 12.1373L34.5661 12.7129L34.7752 11.4938C34.8524 11.0434 34.7031 10.5841 34.3759 10.2651L33.4902 9.40181L34.7143 9.22392C35.1666 9.15817 35.5573 8.87435 35.7595 8.46466L36.3068 7.35548L36.8542 8.46454C37.0565 8.87435 37.4472 9.15829 37.8994 9.22392L39.1234 9.40181L38.2377 10.2652Z" fill="black"/>
<path d="M45.6224 14.5119C45.8658 14.6886 46.1504 14.7785 46.437 14.7785C46.6575 14.7784 46.8794 14.7252 47.0842 14.6175L48.67 13.7838L50.2558 14.6175C50.7269 14.8652 51.287 14.8247 51.7177 14.5119C52.1484 14.1991 52.36 13.6788 52.27 13.1542L51.9672 11.3884L53.2503 10.1377C53.6314 9.76614 53.7659 9.22087 53.6014 8.71474C53.437 8.2086 53.0076 7.84661 52.4808 7.77009L50.7079 7.51239L49.915 5.90587C49.6795 5.42856 49.2024 5.13208 48.6701 5.13208C48.1379 5.13208 47.6609 5.42868 47.4254 5.90587L46.6325 7.51239L44.8594 7.77009C44.3328 7.84661 43.9034 8.2086 43.7389 8.71485C43.5745 9.22099 43.709 9.76626 44.0902 10.1379L45.373 11.3884L45.0702 13.1542C44.9802 13.6788 45.1919 14.199 45.6224 14.5119ZM47.0774 9.22403C47.5298 9.15841 47.9206 8.87446 48.1227 8.46466L48.6701 7.35548L49.2175 8.46454C49.4198 8.87435 49.8105 9.15829 50.2627 9.22392L51.4868 9.40181L50.6011 10.2651C50.2739 10.5841 50.1246 11.0434 50.2019 11.4938L50.4109 12.7128L49.3162 12.1373C49.1139 12.0309 48.8921 11.9778 48.6702 11.9778C48.4484 11.9778 48.2264 12.031 48.0243 12.1373L46.9295 12.7129L47.1385 11.4942C47.2159 11.0437 47.0666 10.5842 46.7393 10.2652L45.8536 9.40192L47.0774 9.22403Z" fill="black"/>
<path d="M8.78906 3.34833H56.64C57.0482 3.34833 57.3803 3.68032 57.3803 4.08849V16.8569C57.3803 17.265 57.0483 17.597 56.6401 17.597H50.4075C49.9221 17.597 49.5286 17.9906 49.5286 18.4759C49.5286 18.9613 49.9221 19.3549 50.4075 19.3549H56.6401C58.0175 19.3549 59.1381 18.2343 59.1381 16.8569V4.08861C59.1381 2.71118 58.0175 1.59064 56.64 1.59064H8.78906C8.30367 1.59064 7.91016 1.98415 7.91016 2.46954C7.91016 2.95493 8.30367 3.34833 8.78906 3.34833Z" fill="black"/>
<path d="M3.61125 19.355H24.9642C25.1297 19.355 25.2838 19.444 25.3665 19.5872L28.5257 25.059C28.8596 25.6375 29.4579 25.9829 30.126 25.9829C30.7941 25.9829 31.3923 25.6375 31.7264 25.059L34.8855 19.5872C34.9683 19.4439 35.1225 19.355 35.2878 19.355H46.8926C47.378 19.355 47.7715 18.9615 47.7715 18.4761C47.7715 17.9907 47.378 17.5972 46.8926 17.5972H35.2878C34.4965 17.5972 33.759 18.0229 33.3633 18.7083L30.2041 24.18C30.1964 24.1935 30.1781 24.2252 30.126 24.2252C30.0739 24.2252 30.0557 24.1936 30.0479 24.1802L26.8888 18.7084C26.493 18.023 25.7556 17.5973 24.9642 17.5973H3.61125C3.20309 17.5973 2.87109 17.2653 2.87109 16.8571V4.08861C2.87109 3.68044 3.20309 3.34845 3.61125 3.34845H5.27426C5.75965 3.34845 6.15316 2.95493 6.15316 2.46954C6.15316 1.98415 5.75965 1.59064 5.27426 1.59064H3.61125C2.23383 1.59064 1.11328 2.71118 1.11328 4.08861V16.857C1.11328 18.2343 2.23395 19.355 3.61125 19.355Z" fill="black"/>
</g>
<defs>
<clipPath id="clip0_325_19572">
<rect width="60" height="60" fill="white"/>
</clipPath>
</defs>
</svg>
